mtllib Gem.mtl
# Blender 4.3.2
# www.blender.org
usemtl Material001
o Sphere
v 0.000000 0.000000 0.314358
v 0.000000 -0.000000 -0.314358
v 0.018882 -0.702254 -0.250474
v -0.017725 -0.703479 -0.250311
v 0.000000 -0.679803 -0.256495
v -0.017717 -1.128993 0.086525
v 0.018588 -1.128389 0.086525
v -0.017725 -0.703479 0.250311
v 0.018563 -0.702586 0.250432
v 0.000000 -0.679803 0.256495
v 0.497766 -0.370584 -0.250432
v 0.490605 -0.339901 -0.256495
v 0.516249 -0.331505 -0.250474
v 0.823639 -0.544740 -0.086525
v 0.805051 -0.583512 -0.086525
v 0.823639 -0.544877 0.086525
v 0.804952 -0.583581 0.086525
v 0.516329 -0.332001 0.250432
v 0.490605 -0.339901 0.256495
v 0.497368 -0.370749 0.250474
v 0.516329 0.332002 -0.250432
v 0.490605 0.339901 -0.256495
v 0.497367 0.370750 -0.250474
v 0.804952 0.583581 -0.086525
v 0.823639 0.544877 -0.086525
v 0.805051 0.583512 0.086525
v 0.823639 0.544740 0.086525
v 0.497766 0.370584 0.250432
v 0.490605 0.339901 0.256495
v 0.516249 0.331505 0.250474
v 0.018563 0.702586 -0.250432
v 0.000000 0.679803 -0.256495
v -0.018882 0.702254 -0.250474
v -0.018687 1.128321 -0.086525
v 0.018588 1.128389 -0.086525
v -0.018589 1.128389 0.086525
v 0.018687 1.128321 0.086525
v -0.018563 0.702586 0.250432
v 0.000000 0.679803 0.256495
v 0.018881 0.702254 0.250474
v -0.497766 0.370584 -0.250432
v -0.490605 0.339901 -0.256495
v -0.516249 0.331505 -0.250474
v -0.823639 0.544740 -0.086525
v -0.805051 0.583512 -0.086525
v -0.823639 0.544877 0.086525
v -0.804952 0.583581 0.086525
v -0.516329 0.332001 0.250432
v -0.490605 0.339901 0.256495
v -0.497368 0.370749 0.250474
v -0.516329 -0.332002 -0.250432
v -0.490605 -0.339902 -0.256495
v -0.496988 -0.371337 -0.250349
v -0.804288 -0.584041 -0.086525
v -0.823639 -0.544877 -0.086525
v -0.804288 -0.584041 0.086525
v -0.823639 -0.544741 0.086525
v -0.496988 -0.371337 0.250349
v -0.490605 -0.339902 0.256495
v -0.516249 -0.331505 0.250474
v 0.018687 -1.128321 -0.086525
v -0.017716 -1.128994 -0.086525
vn -0.0587 -0.0847 0.9947
vn -0.5695 -0.8220 -0.0000
vn -0.2415 -0.3486 -0.9056
vn -0.2415 -0.3486 0.9056
vn 0.4706 -0.0000 0.8823
vn 0.4706 -0.0000 -0.8823
vn 0.2415 0.3486 -0.9056
vn 0.5695 -0.8220 -0.0000
vn 0.2415 0.3486 0.9056
vn -0.2415 0.3486 -0.9056
vn 0.5695 0.8220 -0.0000
vn -0.2415 0.3486 0.9056
vn -0.1171 -0.0000 -0.9931
vn -0.5695 0.8220 -0.0000
vn -0.4706 -0.0000 0.8823
vn -1.0000 -0.0000 -0.0000
vn -0.4706 -0.0000 -0.8823
vn 0.2415 -0.3486 0.9056
vn 0.2415 -0.3486 -0.9056
vn 1.0000 -0.0000 -0.0000
vn 0.0587 -0.0847 -0.9947
vn 0.1171 -0.0000 0.9931
vn 0.1171 -0.0000 -0.9931
vn 0.0587 0.0847 0.9947
vn 0.0587 0.0847 -0.9947
vn -0.0587 0.0847 0.9947
vn -0.0587 0.0847 -0.9947
vn -0.1171 -0.0000 0.9931
vn -0.0587 -0.0847 -0.9947
vn 0.0587 -0.0847 0.9947
vn 0.0043 -0.2557 -0.9667
vn 0.0030 -0.2548 0.9670
vn 0.2659 -0.1268 -0.9556
vn 0.2647 -0.1285 0.9557
vn 0.2647 0.1285 -0.9557
vn 0.2659 0.1268 0.9556
vn -0.0012 0.2581 -0.9661
vn 0.0012 0.2581 0.9661
vn -0.2659 0.1268 -0.9556
vn -0.2647 0.1285 0.9557
vn -0.2658 -0.1327 -0.9548
vn -0.2674 -0.1323 0.9545
vn 0.0059 -0.3592 0.9332
vn 0.3662 -0.1749 -0.9139
vn 0.9011 -0.4335 -0.0000
vn 0.3649 -0.1769 0.9141
vn 0.1152 -0.1663 0.9793
vn 0.1152 -0.1663 -0.9793
vn 0.3649 0.1769 -0.9141
vn 0.9011 0.4335 -0.0000
vn 0.3662 0.1749 0.9139
vn 0.2290 -0.0000 0.9734
vn 0.2290 -0.0000 -0.9734
vn -0.0014 0.3592 -0.9333
vn -0.0000 1.0000 -0.0000
vn 0.0014 0.3592 0.9333
vn 0.1152 0.1663 0.9793
vn 0.1152 0.1663 -0.9793
vn -0.3662 0.1749 -0.9139
vn -0.9011 0.4335 -0.0000
vn -0.3649 0.1769 0.9141
vn -0.1152 0.1663 0.9793
vn -0.1152 0.1663 -0.9793
vn -0.3630 -0.1799 -0.9143
vn -0.8968 -0.4424 0.0002
vn -0.3636 -0.1788 0.9142
vn -0.2290 -0.0000 0.9734
vn -0.2290 -0.0000 -0.9734
vn 0.0073 -0.3592 -0.9332
vn 0.0176 -0.9998 -0.0002
vn -0.1164 -0.1681 0.9789
vn -0.1164 -0.1681 -0.9789
vt 0.750000 0.000000
vt 0.830316 0.192758
vt 0.669684 0.192758
vt 0.829417 0.600000
vt 0.670252 0.400000
vt 0.829417 0.400000
vt 0.829388 0.795266
vt 0.672470 0.795221
vt 0.672467 0.600000
vt 0.829388 0.204734
vt 0.672467 0.400000
vt 0.672470 0.204779
vt 0.496239 0.400000
vt 0.337115 0.400000
vt 0.337154 0.204585
vt 0.496179 0.795415
vt 0.339411 0.795364
vt 0.339419 0.600000
vt 0.329513 0.795415
vt 0.170428 0.600000
vt 0.329552 0.600000
vt 0.493914 0.400000
vt 0.493922 0.204636
vt 0.662885 0.600000
vt 0.503761 0.600000
vt 0.503781 0.400000
vt 0.329572 0.400000
vt 0.170448 0.400000
vt 0.170487 0.204585
vt 0.172745 0.795364
vt 0.172753 0.600000
vt 0.162846 0.795415
vt 0.003761 0.600000
vt 0.162885 0.600000
vt 0.162905 0.400000
vt 0.003781 0.400000
vt 0.003821 0.204585
vt 0.006078 0.795364
vt 0.006086 0.600000
vt 0.996983 0.807242
vt 0.916667 1.000000
vt 0.836351 0.807242
vt 0.996239 0.400000
vt 0.837115 0.400000
vt 0.837154 0.204585
vt 0.996219 0.600000
vt 0.996238 0.400000
vt 0.670252 0.600000
vt 0.837095 0.600000
vt 0.996179 0.795415
vt 0.839411 0.795364
vt 0.839419 0.600000
vt 0.662905 0.400000
vt 0.503821 0.204585
vt 0.337095 0.600000
vt 0.496219 0.600000
vt 0.660581 0.400000
vt 0.660589 0.204636
vt 0.662846 0.795415
vt 0.663649 0.807242
vt 0.583333 1.000000
vt 0.503017 0.807242
vt 0.416667 0.000000
vt 0.496983 0.192758
vt 0.336351 0.192758
vt 0.496983 0.807242
vt 0.416667 1.000000
vt 0.336351 0.807242
vt 0.250000 0.000000
vt 0.330316 0.192758
vt 0.169684 0.192758
vt 0.330316 0.807242
vt 0.250000 1.000000
vt 0.169684 0.807242
vt 0.327247 0.400000
vt 0.327255 0.204636
vt 0.083333 0.000000
vt 0.163649 0.192758
vt 0.003017 0.192758
vt 0.163649 0.807242
vt 0.083333 1.000000
vt 0.003017 0.807242
vt 0.160581 0.400000
vt 0.160589 0.204636
vt 0.916667 0.000000
vt 0.996983 0.192758
vt 0.836351 0.192758
vt 0.993914 0.400000
vt 0.993922 0.204636
vt 0.830316 0.807242
vt 0.750000 1.000000
vt 0.669684 0.807242
vt 0.583333 0.000000
vt 0.663649 0.192758
vt 0.503017 0.192758
vt 0.666667 0.796735
vt 0.666667 0.800000
vt 0.671239 0.200000
vt 0.666667 0.200000
vt 0.506078 0.795364
vt 0.503017 0.800000
vt 0.500000 0.797028
vt 0.495116 0.200000
vt 0.500000 0.200000
vt 0.333333 0.796950
vt 0.333333 0.800000
vt 0.333333 0.200000
vt 0.338335 0.200000
vt 0.166667 0.796950
vt 0.166667 0.800000
vt 0.161783 0.200000
vt 0.166667 0.200000
vt 1.000000 0.796950
vt 1.000000 0.800000
vt 0.995116 0.200000
vt 1.000000 0.200000
vt 0.836351 0.800000
vt 0.833333 0.796931
vt 0.833333 0.200000
vt 0.838335 0.200000
vt 0.506086 0.600000
vt 1.000000 0.601588
vt 1.000000 0.400000
vt 1.000000 0.600000
vt 1.000000 0.202972
vt 1.000000 0.398404
s 1
f 1/1/1 59/2/1 10/3/1
f 54/4/2 6/5/2 56/6/2
f 53/7/3 4/8/3 62/9/3
f 58/10/4 56/6/4 6/5/4
f 58/10/4 6/11/4 8/12/4
f 16/13/5 27/14/5 30/15/5
f 13/16/6 21/17/6 25/18/6
f 23/19/7 35/20/7 24/21/7
f 16/22/5 30/15/5 18/23/5
f 61/24/8 15/25/8 17/26/8
f 26/27/9 37/28/9 40/29/9
f 23/19/7 31/30/7 35/31/7
f 33/32/10 45/33/10 34/34/10
f 24/21/11 35/20/11 37/28/11
f 24/21/11 37/28/11 26/27/11
f 36/35/12 47/36/12 50/37/12
f 33/32/10 41/38/10 45/39/10
f 42/40/13 2/41/13 52/42/13
f 34/34/14 45/33/14 47/36/14
f 34/34/14 47/36/14 36/35/14
f 46/43/15 57/44/15 60/45/15
f 44/46/16 57/44/16 46/47/16
f 53/7/3 62/48/3 54/4/3
f 44/46/16 55/49/16 57/44/16
f 43/50/17 51/51/17 55/52/17
f 7/53/18 17/26/18 20/54/18
f 13/16/6 25/55/6 14/56/6
f 7/57/18 20/54/18 9/58/18
f 3/59/19 15/25/19 61/24/19
f 14/56/20 25/55/20 27/14/20
f 61/24/8 17/26/8 7/53/8
f 5/60/21 2/61/21 12/62/21
f 1/63/22 19/64/22 29/65/22
f 12/66/23 2/67/23 22/68/23
f 14/56/20 27/14/20 16/13/20
f 1/69/24 29/70/24 39/71/24
f 22/72/25 2/73/25 32/74/25
f 26/75/9 40/29/9 28/76/9
f 1/77/26 39/78/26 49/79/26
f 32/80/27 2/81/27 42/82/27
f 36/83/12 50/37/12 38/84/12
f 1/85/28 49/86/28 59/87/28
f 43/50/17 55/49/17 44/46/17
f 46/88/15 60/45/15 48/89/15
f 54/4/2 62/48/2 6/5/2
f 52/90/29 2/91/29 5/92/29
f 1/93/30 10/94/30 19/95/30
f 3/59/31 4/96/31 5/97/31
f 8/98/32 9/99/32 10/3/32
f 11/100/33 12/101/33 13/102/33
f 18/103/34 19/64/34 20/104/34
f 21/105/35 22/106/35 23/19/35
f 28/107/36 29/65/36 30/108/36
f 31/109/37 32/110/37 33/32/37
f 38/111/38 39/78/38 40/112/38
f 41/113/39 42/114/39 43/50/39
f 48/115/40 49/86/40 50/116/40
f 51/51/41 52/117/41 53/118/41
f 58/119/42 59/87/42 60/120/42
f 7/57/43 9/58/43 8/12/43 6/11/43
f 13/16/44 14/56/44 15/121/44 11/100/44
f 14/56/45 16/13/45 17/26/45 15/25/45
f 16/22/46 18/23/46 20/54/46 17/26/46
f 9/58/47 20/54/47 19/95/47 10/94/47
f 11/100/48 3/59/48 5/60/48 12/62/48
f 23/19/49 24/21/49 25/18/49 21/17/49
f 24/21/50 26/27/50 27/14/50 25/55/50
f 26/75/51 28/76/51 30/15/51 27/14/51
f 29/65/52 19/64/52 18/23/52 30/15/52
f 12/66/53 22/68/53 21/17/53 13/16/53
f 33/32/54 34/34/54 35/31/54 31/30/54
f 34/34/55 36/35/55 37/28/55 35/20/55
f 36/83/56 38/84/56 40/29/56 37/28/56
f 39/71/57 29/70/57 28/76/57 40/29/57
f 22/72/58 32/74/58 31/30/58 23/19/58
f 43/50/59 44/46/59 45/122/59 41/113/59
f 44/46/60 46/47/60 47/123/60 45/124/60
f 46/88/61 48/89/61 50/125/61 47/126/61
f 49/79/62 39/78/62 38/84/62 50/37/62
f 32/80/63 42/82/63 41/38/63 33/32/63
f 53/7/64 54/4/64 55/52/64 51/51/64
f 54/4/65 56/6/65 57/44/65 55/49/65
f 56/6/66 58/10/66 60/45/66 57/44/66
f 59/87/67 49/86/67 48/89/67 60/45/67
f 42/40/68 52/42/68 51/51/68 43/50/68
f 3/59/69 61/24/69 62/9/69 4/8/69
f 61/24/70 7/53/70 6/5/70 62/48/70
f 10/3/71 59/2/71 58/10/71 8/12/71
f 52/90/72 5/92/72 4/8/72 53/7/72
f 3/59/19 11/100/19 15/121/19
