mtllib StarryOre.mtl
# Blender 4.3.2
# www.blender.org
usemtl Material001
o Star
v 0.904270 0.000000 0.000000
v -0.904270 0.000000 0.000000
v -0.008454 -0.498499 -0.498499
v 0.008454 -0.498499 -0.498499
v -0.000608 -0.000000 -1.488446
v 0.000608 -0.000000 -1.488446
v -0.008454 0.498498 -0.498499
v 0.008455 0.498499 -0.498499
v -0.000608 1.488446 -0.000000
v 0.000608 1.488446 -0.000000
v -0.008454 0.498499 0.498498
v 0.008454 0.498499 0.498498
v -0.000608 0.000000 1.488446
v 0.000608 0.000000 1.488446
v -0.008455 -0.498499 0.498498
v 0.008454 -0.498499 0.498499
v -0.000608 -1.488447 0.000001
v 0.000608 -1.488447 0.000001
vn 0.5908 -0.3591 -0.7225
vn 0.5908 -0.7225 -0.3591
vn 0.5908 0.7225 -0.3591
vn 0.5908 0.3591 -0.7225
vn 0.5908 0.3591 0.7225
vn 0.5908 0.7225 0.3591
vn 0.5908 -0.7225 0.3591
vn 0.5908 -0.3591 0.7225
vn -0.0000 0.4498 0.8932
vn -0.0000 0.8932 0.4498
vn -0.0000 -0.8932 0.4498
vn 0.0001 -0.8932 0.4498
vn -0.0000 -0.4498 0.8932
vn -0.0000 -0.4498 -0.8932
vn -0.0000 -0.8932 -0.4498
vn -0.0000 0.8932 -0.4498
vn 0.0001 0.4498 -0.8932
vn -0.0000 0.4498 -0.8932
vn -0.5908 -0.3591 -0.7225
vn -0.5908 -0.7225 -0.3591
vn -0.5908 0.7225 -0.3591
vn -0.5908 0.3591 -0.7225
vn -0.5908 0.3591 0.7225
vn -0.5908 0.7225 0.3591
vn -0.5908 -0.7225 0.3591
vn -0.5908 -0.3591 0.7225
vt 0.186923 0.177847
vt 0.324608 -0.000000
vt 0.324608 0.335299
vt -0.000000 0.083996
vt 0.914348 0.205258
vt 0.649216 0.410516
vt 0.689432 0.205258
vt 0.649216 0.000000
vt -0.000000 0.670599
vt 0.136983 0.824118
vt -0.000000 0.867443
vt 0.221294 0.670599
vt 0.280653 0.858279
vt 0.136983 0.858279
vt 0.324608 0.670599
vt 0.186923 0.513147
vt -0.000000 0.419296
vt 0.997390 0.205258
vt 0.957362 0.000000
vt 1.000000 0.205258
vt 0.957174 0.410517
vt 0.323479 0.879724
vt 0.323479 0.670599
vt 0.323663 0.879760
vt 0.916957 0.615774
vt 0.956986 0.821033
vt 0.914348 0.615774
vt 0.323847 0.670599
vt 0.323847 0.880277
vt 0.323663 0.670637
vt 0.320870 0.875857
vt 0.280841 0.670599
vt 0.323479 0.875857
vt 0.914535 0.410516
vt 0.954564 0.205258
vt 0.957174 0.205258
vt 0.914535 -0.000000
vt 0.649216 0.335299
vt 0.511531 0.157452
vt 0.324608 0.251303
vt 0.468279 0.670599
vt 0.383968 0.858279
vt 0.605261 0.670599
vt 0.605261 0.867443
vt 0.468279 0.713924
vt 0.914348 0.615775
vt 0.689433 0.615774
vt 0.649216 0.821033
vt 0.649216 0.586603
vt 0.462293 0.492751
vt 0.957174 0.000000
vt 0.957362 0.410517
vt 0.957174 0.410516
vt 0.957174 0.821033
vt 0.605261 0.880239
vt 0.607816 0.671130
vt 0.280653 0.670599
vt 0.914348 0.410516
vt 0.914348 -0.000000
s 1
f 3/1/1 1/2/1 17/3/1
f 1/2/2 3/1/2 5/4/2
f 1/5/3 5/6/3 7/7/3
f 1/5/4 7/7/4 9/8/4
f 1/9/5 9/10/5 11/11/5
f 1/12/6 11/13/6 13/14/6
f 1/3/7 13/15/7 15/16/7
f 1/3/8 15/16/8 17/17/8
f 3/18/9 18/19/9 4/20/9
f 4/20/10 5/21/10 3/18/10
f 6/22/11 7/23/12 5/24/11
f 8/25/13 9/26/13 7/27/13
f 10/28/14 11/29/14 9/30/14
f 12/31/15 13/32/15 11/33/15
f 13/34/16 16/35/16 15/36/16
f 16/35/17 17/37/18 15/36/17
f 2/38/19 4/39/19 18/8/19
f 4/39/20 2/38/20 6/40/20
f 6/41/21 2/42/21 8/15/21
f 8/43/22 2/44/22 10/45/22
f 10/6/23 2/46/23 12/47/23
f 12/47/24 2/46/24 14/48/24
f 14/49/25 2/15/25 16/50/25
f 16/50/26 2/15/26 18/3/26
f 3/18/9 17/51/9 18/19/9
f 4/20/10 6/52/10 5/21/10
f 6/53/11 8/25/12 7/27/12
f 8/25/13 10/54/13 9/26/13
f 10/55/14 12/43/14 11/56/14
f 12/31/15 14/57/15 13/32/15
f 13/34/16 14/58/16 16/35/16
f 16/35/17 18/59/18 17/37/18
